<svg width="67" height="49" fill="none" xmlns="http://www.w3.org/2000/svg"><path d="M9.96 26H0C0 37.668 10.063 48.63 22.477 48.63S44.955 37.668 44.955 26h-9.963c0 6.806-5.602 12.6-12.515 12.6-6.912 0-12.516-5.794-12.516-12.6z" fill="url(#paint0_linear)"/><path d="M22.439 48.536C34.899 48.536 45 37.78 45 26.071H35c0 6.83-5.623 12.523-12.561 12.523" fill="url(#paint1_linear)"/><path d="M57.04 22.628H67C67 10.961 56.937 0 44.523 0S22.045 10.96 22.045 22.629h9.963c0-6.807 5.602-12.6 12.515-12.6 6.912 0 12.516 5.793 12.516 12.6z" fill="url(#paint2_linear)"/><path d="M44.561.092C32.101.092 22 10.848 22 22.558h10c0-6.83 5.623-12.523 12.561-12.523" fill="url(#paint3_linear)"/><defs><linearGradient id="paint0_linear" x1="-2.732" y1="36.923" x2="57.469" y2="37.562" gradientUnits="userSpaceOnUse"><stop stop-color="#29D3DA"/><stop offset=".519" stop-color="#07F"/><stop offset=".999" stop-color="#064093"/><stop offset="1" stop-color="#084698"/></linearGradient><linearGradient id="paint1_linear" x1="47.567" y1="37.023" x2="14.974" y2="37.504" gradientUnits="userSpaceOnUse"><stop stop-color="#29D3DA"/><stop offset=".519" stop-color="#07F"/><stop offset=".999" stop-color="#064093"/><stop offset="1" stop-color="#084698"/></linearGradient><linearGradient id="paint2_linear" x1="69.732" y1="11.706" x2="9.531" y2="11.067" gradientUnits="userSpaceOnUse"><stop stop-color="#29D3DA"/><stop offset=".519" stop-color="#07F"/><stop offset=".999" stop-color="#064093"/><stop offset="1" stop-color="#084698"/></linearGradient><linearGradient id="paint3_linear" x1="19.433" y1="11.606" x2="52.026" y2="11.124" gradientUnits="userSpaceOnUse"><stop stop-color="#29D3DA"/><stop offset=".519" stop-color="#07F"/><stop offset=".999" stop-color="#064093"/><stop offset="1" stop-color="#084698"/></linearGradient></defs></svg>