<svg aria-hidden="true" style="position: absolute; width: 0; height: 0; overflow: hidden;" version="1.1" xmlns="http://www.w3.org/2000/svg" xmlns:xlink="http://www.w3.org/1999/xlink">
<defs>
<symbol id="icon-icon-close" viewBox="0 0 32 32">
<path fill="none" stroke="#fff" style="stroke: var(--color1, #fff)" stroke-width="1.4286" d="M16.754 16.047l8.662-8.662c0.092-0.091 0.149-0.217 0.149-0.356 0-0.276-0.224-0.5-0.5-0.5-0.139 0-0.265 0.057-0.356 0.149l-8.662 8.662-8.662-8.662c-0.090-0.090-0.215-0.146-0.354-0.146s-0.263 0.056-0.354 0.146v0c-0.090 0.090-0.146 0.215-0.146 0.354s0.056 0.263 0.146 0.354l8.662 8.662-8.662 8.662c-0.090 0.090-0.146 0.215-0.146 0.354s0.056 0.263 0.146 0.354v0c0.098 0.098 0.226 0.146 0.354 0.146s0.256-0.049 0.354-0.146l8.662-8.662 8.662 8.662c0.098 0.098 0.226 0.146 0.354 0.146s0.256-0.049 0.354-0.146c0.090-0.090 0.146-0.215 0.146-0.354s-0.056-0.263-0.146-0.354l-8.662-8.662z"></path>
</symbol>
<symbol id="icon-icon-menu" viewBox="0 0 51 32">
<path fill="none" stroke="#fff" style="stroke: var(--color1, #fff)" stroke-linejoin="miter" stroke-linecap="round" stroke-miterlimit="4" stroke-width="3.4286" d="M49.143 2.286h-46.857M49.143 16h-46.857M49.143 29.714h-46.857"></path>
</symbol>
<symbol id="icon-logo" fill="29D3DA" viewBox="0 0 44 32">
<path d="M6.505 16.98h-6.505c0 7.62 6.572 14.779 14.679 14.779s14.68-7.159 14.68-14.779h-6.506c0 4.445-3.658 8.229-8.173 8.229s-8.174-3.784-8.174-8.229z"></path>
<path d="M14.654 31.697c8.137 0 14.734-7.024 14.734-14.671h-6.531c0 4.46-3.672 8.178-8.203 8.178z"></path>
<path d="M37.251 14.777h6.505c0-7.619-6.572-14.777-14.679-14.777s-14.68 7.158-14.68 14.778h6.506c0-4.445 3.658-8.229 8.173-8.229s8.174 3.783 8.174 8.229z"></path>
<path d="M29.101 0.060c-8.137 0-14.734 7.024-14.734 14.672h6.531c0-4.46 3.672-8.178 8.203-8.178z"></path>
</symbol>
</defs>
</svg>
